<svg width="66" height="66" viewBox="0 0 66 66" fill="none" xmlns="http://www.w3.org/2000/svg">
<rect width="66" height="66" fill="#1D63F8"/>
<path fill-rule="evenodd" clip-rule="evenodd" d="M15.2471 22.2112L15 22.4225V32.896V43.3696L15.2518 43.5848L15.5036 43.8001L21.3722 43.7715C27.0931 43.7437 27.2582 43.7381 27.9255 43.5517C28.302 43.4466 28.9757 43.1741 29.4226 42.9462C30.0884 42.6066 30.3869 42.3809 31.0761 41.696C31.7653 41.0111 31.9924 40.7144 32.3341 40.0527C32.5634 39.6086 32.8302 38.9391 32.9269 38.5649C33.0425 38.1174 33.1043 37.5845 33.1075 37.0075C33.1101 36.5251 33.0662 35.878 33.0099 35.5694C32.9535 35.2609 32.8097 34.7503 32.6901 34.4347C32.5706 34.1191 32.2993 33.5847 32.0872 33.2471C31.875 32.9097 31.4904 32.4138 31.2324 32.1452C30.9745 31.8767 30.6526 31.5742 30.5172 31.473L30.2708 31.289L30.5846 30.6697C30.7571 30.3292 30.9611 29.7849 31.0378 29.4603C31.1185 29.1189 31.1754 28.5013 31.1731 27.995C31.1707 27.4978 31.1096 26.893 31.0314 26.5947C30.9557 26.3059 30.7298 25.7348 30.5292 25.3257C30.237 24.7295 30.0142 24.432 29.4073 23.8276C28.7688 23.1919 28.5186 23.0107 27.8133 22.6733C27.3353 22.4446 26.6858 22.2146 26.2979 22.1365C25.7296 22.0222 24.7948 22 20.5567 22H15.4942L15.2471 22.2112ZM38.2047 23.1141C38.0296 23.3354 38.0177 23.4363 38.0442 24.4786C38.0711 25.5389 38.0849 25.6138 38.2807 25.7713C38.4784 25.9301 38.6824 25.9383 42.4353 25.9383H46.3821L46.5712 25.6994C46.7461 25.4785 46.7581 25.3769 46.7317 24.3518C46.7074 23.4093 46.6779 23.2155 46.5353 23.0591C46.3696 22.8774 46.32 22.8752 42.3807 22.8752H38.3938L38.2047 23.1141ZM26.008 26.258C26.2018 26.3616 26.447 26.5389 26.553 26.6519C26.6589 26.7648 26.8265 27.0345 26.9253 27.2511C27.0241 27.4677 27.1058 27.7782 27.1069 27.9411C27.1079 28.104 27.0629 28.3898 27.0066 28.5763C26.9504 28.7627 26.7644 29.0779 26.5932 29.2765C26.4221 29.4753 26.1214 29.7104 25.9249 29.7991C25.5986 29.9464 25.2836 29.9605 22.2873 29.9622L19.0069 29.9642V27.9911V26.018L22.3313 26.0438C25.5407 26.0687 25.6679 26.0761 26.008 26.258ZM41.7275 26.9865C41.4126 27.0262 40.8975 27.1248 40.5826 27.2058C40.2678 27.2866 39.6885 27.5022 39.2952 27.6848C38.902 27.8673 38.3274 28.1872 38.0183 28.3957C37.7093 28.6042 37.1775 29.0522 36.8366 29.3914C36.4958 29.7305 36.0113 30.3198 35.7599 30.7009C35.5086 31.082 35.1807 31.6856 35.0313 32.0421C34.8821 32.3986 34.6806 32.9926 34.5837 33.3621C34.4868 33.7315 34.3846 34.47 34.3565 35.0033C34.3255 35.592 34.3479 36.2615 34.4136 36.7079C34.473 37.1121 34.6219 37.7588 34.7444 38.145C34.867 38.5312 35.0869 39.0836 35.2331 39.3724C35.3794 39.6612 35.6519 40.1215 35.8387 40.3952C36.0256 40.669 36.396 41.1264 36.6618 41.4117C36.9276 41.6971 37.3538 42.0904 37.609 42.286C37.8641 42.4814 38.3056 42.7805 38.5903 42.9507C38.8749 43.1208 39.3703 43.3581 39.6911 43.4778C40.0119 43.5975 40.532 43.764 40.8468 43.8479C41.2623 43.9585 41.7573 44.0003 42.6521 44C43.6531 43.9997 44.0259 43.9625 44.6336 43.8016C45.0453 43.6926 45.7128 43.4498 46.1169 43.262C46.521 43.0742 47.0981 42.7458 47.3992 42.5322C47.7005 42.3186 48.2615 41.8122 48.646 41.4068C49.0305 41.0015 49.5332 40.3529 49.7633 39.9655C49.9934 39.5781 50.1816 39.2054 50.1816 39.1373C50.1816 39.0692 50.1341 38.9663 50.0759 38.9085C49.9994 38.8325 49.3694 38.8035 47.7946 38.8035H45.6189L45.2364 39.1232C45.0259 39.299 44.643 39.5395 44.3853 39.6575C44.1277 39.7755 43.6459 39.9138 43.3147 39.9647C42.8801 40.0316 42.5449 40.0297 42.1101 39.9581C41.7737 39.9027 41.2303 39.7227 40.8795 39.5504C40.4271 39.3282 40.0969 39.0779 39.7001 38.6563C39.3884 38.3251 39.0405 37.8404 38.8993 37.5401C38.7618 37.2482 38.6237 36.8814 38.5923 36.725L38.5351 36.4405H44.5632H50.5912L50.8041 36.2152C50.9969 36.0114 51.0148 35.9262 50.9925 35.3182C50.979 34.9487 50.9288 34.3995 50.881 34.0978C50.8332 33.7961 50.692 33.225 50.5669 32.8288C50.4419 32.4325 50.1836 31.8084 49.9927 31.4416C49.8018 31.0749 49.3796 30.4451 49.0545 30.0419C48.7294 29.6388 48.1412 29.0527 47.7475 28.7394C47.3538 28.4263 46.6858 27.9993 46.263 27.7906C45.8403 27.5818 45.132 27.3197 44.6891 27.208C44.2461 27.0964 43.5273 26.9846 43.0918 26.9597C42.6563 26.9349 42.0423 26.947 41.7275 26.9865ZM43.7089 31.1188C43.9027 31.1665 44.2936 31.3279 44.5776 31.4775C44.8617 31.6272 45.2585 31.9091 45.4596 32.104C45.6607 32.299 45.9164 32.5865 46.028 32.7429L46.2307 33.0273H42.655H39.0794L39.1853 32.8304C39.2436 32.722 39.5017 32.4293 39.7589 32.1798C40.0262 31.9203 40.5006 31.5919 40.8668 31.4126C41.2309 31.2345 41.7354 31.0677 42.0357 31.0261C42.3263 30.9859 42.7424 30.9709 42.9604 30.9926C43.1783 31.0143 43.5152 31.0711 43.7089 31.1188ZM27.5086 34.3542C27.7527 34.4822 28.1229 34.7707 28.3311 34.9952C28.5393 35.2196 28.7947 35.5875 28.8986 35.8125C29.0418 36.1226 29.0876 36.3913 29.0876 36.9219C29.0876 37.4524 29.0418 37.7212 28.8986 38.0312C28.7947 38.2563 28.5393 38.6241 28.3311 38.8486C28.1229 39.0731 27.7527 39.3615 27.5086 39.4896L27.0648 39.7225L23.0359 39.7477L19.0069 39.7729V36.9219V34.0709L23.0359 34.0961L27.0648 34.1213L27.5086 34.3542Z" fill="white"/>
</svg>
