<svg width="66" height="66" viewBox="0 0 66 66" fill="none" xmlns="http://www.w3.org/2000/svg">
<rect width="66" height="66" fill="#1DBF73"/>
<path fill-rule="evenodd" clip-rule="evenodd" d="M30.3583 16.0635C30.0992 16.0949 29.6181 16.1839 29.2892 16.2613C28.9602 16.3388 28.5032 16.473 28.2734 16.5597C28.0437 16.6464 27.6209 16.8306 27.3339 16.969C27.0469 17.1074 26.5934 17.3662 26.3261 17.5441C26.0589 17.722 25.6154 18.0614 25.3406 18.2983C25.0659 18.5353 24.6478 18.9547 24.4116 19.2303C24.1754 19.506 23.8371 19.9509 23.6598 20.219C23.4824 20.4872 23.2118 20.9698 23.0585 21.2916C22.9051 21.6134 22.7048 22.096 22.6133 22.3642C22.5218 22.6323 22.3857 23.1442 22.3109 23.5017C22.2202 23.9355 22.1616 24.5238 22.1349 25.2702L22.095 26.3885L20.3599 26.4077C18.7246 26.4258 18.6144 26.4346 18.446 26.5609C18.3476 26.6346 18.2071 26.7757 18.1336 26.8744C18.0041 27.0483 18 27.1308 18 29.5146C18 31.8984 18.0041 31.9808 18.1336 32.1547C18.2071 32.2535 18.3476 32.3945 18.446 32.4682C18.6145 32.5946 18.7245 32.6034 20.3696 32.6215L22.1145 32.6407V37.8351V43.0294L20.3696 43.0486C18.7245 43.0668 18.6145 43.0755 18.446 43.2019C18.3476 43.2756 18.2071 43.4167 18.1336 43.5154C18.0041 43.6893 18 43.7717 18 46.1556C18 48.5394 18.0041 48.6218 18.1336 48.7957C18.2071 48.8944 18.3477 49.0355 18.4461 49.1092C18.6238 49.2423 18.6654 49.2432 24.7063 49.2432C30.7471 49.2432 30.7887 49.2423 30.9664 49.1092C31.0648 49.0355 31.2054 48.8944 31.2789 48.7957C31.4084 48.6218 31.4125 48.5394 31.4125 46.1556C31.4125 43.7717 31.4084 43.6893 31.2789 43.5154C31.2054 43.4167 31.0649 43.2756 30.9666 43.2019C30.8035 43.0795 30.6814 43.0661 29.5613 43.0477L28.3348 43.0275V37.8311V32.6348H33.5184H38.7019V37.8321V43.0294L36.9571 43.0486C35.312 43.0668 35.202 43.0755 35.0335 43.2019C34.9351 43.2756 34.7946 43.4167 34.7211 43.5154C34.5916 43.6893 34.5875 43.7717 34.5875 46.1556C34.5875 48.5394 34.5916 48.6218 34.7211 48.7957C34.7946 48.8944 34.9352 49.0355 35.0336 49.1092C35.2113 49.2423 35.2529 49.2432 41.2937 49.2432C47.3346 49.2432 47.3762 49.2423 47.5539 49.1092C47.6523 49.0355 47.7929 48.8944 47.8664 48.7957C47.9959 48.6218 48 48.5394 48 46.1556C48 43.7717 47.9959 43.6893 47.8664 43.5154C47.7929 43.4167 47.6524 43.2756 47.5541 43.2019C47.3909 43.0795 47.2689 43.0661 46.1496 43.0477L44.9237 43.0275L44.9068 35.0407C44.8899 27.0887 44.8893 27.0531 44.7562 26.8744C44.6828 26.7757 44.5422 26.6346 44.4437 26.5609C44.2656 26.4275 44.2302 26.4268 36.2998 26.4099L28.3348 26.3929L28.3359 25.7598C28.3365 25.4117 28.3789 24.9285 28.4301 24.6861C28.4813 24.4436 28.6037 24.0969 28.7022 23.9155C28.8006 23.7341 28.9985 23.4519 29.1419 23.2884C29.2854 23.1248 29.5759 22.8789 29.7873 22.7417C29.9988 22.6046 30.3198 22.4462 30.5006 22.3898C30.7033 22.3265 31.2192 22.2705 31.8459 22.2438C32.7293 22.2062 32.8858 22.1831 33.0406 22.067C33.1386 21.9936 33.2789 21.8528 33.3524 21.7541C33.4818 21.5802 33.486 21.4978 33.486 19.114C33.486 16.7301 33.4818 16.6477 33.3524 16.4738C33.2789 16.3751 33.1383 16.234 33.0401 16.1603C32.879 16.0394 32.7616 16.0253 31.8454 16.0163C31.2866 16.0109 30.6174 16.0321 30.3583 16.0635ZM41.1156 16.0923C40.8929 16.1409 40.5576 16.2626 40.3705 16.3629C40.1833 16.4631 39.8531 16.7209 39.6366 16.9358C39.3895 17.1809 39.1669 17.4837 39.0386 17.7489C38.9263 17.9813 38.8002 18.3835 38.7586 18.6427C38.7009 19.002 38.7009 19.2259 38.7586 19.5852C38.8002 19.8445 38.9263 20.2467 39.0386 20.479C39.165 20.7403 39.3932 21.0523 39.6366 21.2965C39.88 21.5407 40.191 21.7696 40.4514 21.8964C40.683 22.0091 41.0839 22.1355 41.3423 22.1773C41.7005 22.2352 41.9237 22.2352 42.2819 22.1773C42.5403 22.1355 42.9411 22.0091 43.1728 21.8964C43.4332 21.7696 43.7442 21.5407 43.9876 21.2965C44.231 21.0523 44.4592 20.7403 44.5856 20.479C44.6979 20.2467 44.824 19.8445 44.8656 19.5852C44.9233 19.2259 44.9233 19.002 44.8656 18.6427C44.824 18.3835 44.6979 17.9813 44.5856 17.7489C44.4573 17.4837 44.2347 17.1809 43.9876 16.9358C43.7711 16.7209 43.4417 16.4636 43.2557 16.364C43.0698 16.2643 42.7199 16.1408 42.4782 16.0894C42.2366 16.038 41.9222 15.9979 41.7797 16.0001C41.6371 16.0023 41.3383 16.0438 41.1156 16.0923ZM31.4449 19.114V20.154H31.2154C31.0892 20.154 30.7611 20.2004 30.4865 20.2571C30.2118 20.3137 29.7789 20.441 29.5243 20.5399C29.2699 20.6388 28.8617 20.8535 28.6172 21.017C28.3728 21.1806 28.003 21.4848 27.7954 21.693C27.5878 21.9013 27.2846 22.2723 27.1216 22.5175C26.9585 22.7628 26.7443 23.1723 26.6456 23.4276C26.5468 23.6829 26.4183 24.128 26.3601 24.4168C26.2765 24.8311 26.2583 25.2446 26.274 26.3785C26.2923 27.7112 26.3034 27.8283 26.4273 27.9947C26.5008 28.0933 26.6414 28.2343 26.7398 28.308C26.918 28.4414 26.9534 28.4421 34.883 28.459L42.8473 28.476L42.8642 36.466C42.8811 44.4212 42.8818 44.4567 43.0148 44.6354C43.0883 44.7342 43.2288 44.8752 43.3271 44.949C43.4903 45.0714 43.6124 45.0848 44.7324 45.1032L45.959 45.1234V46.1595V47.1956H41.2937H36.6285V46.1585V45.1215L38.3734 45.1022C40.0184 45.0841 40.1285 45.0753 40.297 44.949C40.3954 44.8752 40.5359 44.7342 40.6094 44.6354C40.7423 44.4569 40.743 44.4207 40.743 37.8351C40.743 31.2495 40.7423 31.2133 40.6094 31.0347C40.5359 30.936 40.3953 30.7949 40.2969 30.7212C40.1189 30.5879 40.0828 30.5871 33.5184 30.5871C26.9539 30.5871 26.9178 30.5879 26.7398 30.7212C26.6414 30.7949 26.5008 30.936 26.4273 31.0347C26.2944 31.2133 26.2937 31.2495 26.2937 37.8351C26.2937 44.4207 26.2944 44.4569 26.4273 44.6354C26.5008 44.7342 26.6414 44.8752 26.7397 44.949C26.9028 45.0714 27.0249 45.0848 28.1449 45.1032L29.3715 45.1234V46.1595V47.1956H24.7063H20.041V46.1585V45.1215L21.7859 45.1022C23.431 45.0841 23.541 45.0753 23.7095 44.949C23.8079 44.8752 23.9484 44.7342 24.0219 44.6354C24.1548 44.4569 24.1555 44.4207 24.1555 37.8351C24.1555 31.2495 24.1548 31.2133 24.0219 31.0347C23.9484 30.936 23.8079 30.7949 23.7095 30.7212C23.541 30.5948 23.431 30.586 21.7859 30.5679L20.041 30.5487V29.5146V28.4805L21.7859 28.4613C23.431 28.4431 23.541 28.4343 23.7095 28.308C23.8079 28.2343 23.9484 28.0933 24.0219 27.9947C24.1463 27.8277 24.1581 27.6984 24.1932 26.1136C24.2213 24.8464 24.2601 24.279 24.3449 23.8917C24.4075 23.6057 24.5186 23.1962 24.5916 22.9817C24.6647 22.7672 24.8344 22.3723 24.9686 22.1041C25.1029 21.836 25.3613 21.4054 25.543 21.1472C25.7247 20.889 26.0781 20.4724 26.3283 20.2212C26.5786 19.9702 26.9939 19.6157 27.2513 19.4334C27.5086 19.2511 27.9379 18.9918 28.2052 18.8571C28.4725 18.7224 28.8675 18.5517 29.083 18.4777C29.2985 18.4037 29.7067 18.2982 29.9901 18.2432C30.2735 18.1881 30.5783 18.1315 30.6674 18.1173C30.7565 18.1032 30.9678 18.0876 31.1371 18.0827L31.4449 18.0739V19.114ZM42.2268 18.1645C42.3457 18.2144 42.527 18.3656 42.6297 18.5007C42.7846 18.7044 42.8164 18.809 42.8164 19.114C42.8164 19.419 42.7846 19.5235 42.6297 19.7272C42.527 19.8623 42.3457 20.0136 42.2268 20.0634C42.1079 20.1133 41.9213 20.154 41.8121 20.154C41.7029 20.154 41.5163 20.1133 41.3974 20.0634C41.2785 20.0136 41.0972 19.8623 40.9945 19.7272C40.8396 19.5235 40.8078 19.419 40.8078 19.114C40.8078 18.809 40.8396 18.7044 40.9943 18.501C41.097 18.366 41.2719 18.2159 41.3831 18.1673C41.4943 18.1188 41.681 18.0779 41.798 18.0764C41.9149 18.0751 42.1079 18.1147 42.2268 18.1645Z" fill="white"/>
</svg>
