<svg width="66" height="66" viewBox="0 0 66 66" fill="none" xmlns="http://www.w3.org/2000/svg">
<rect width="66" height="66" fill="white"/>
<path fill-rule="evenodd" clip-rule="evenodd" d="M22.9598 29.013C22.8095 29.0351 22.716 29.116 22.6608 29.2715C22.6167 29.396 22.4924 29.8548 22.3847 30.2911C22.277 30.7274 22.1632 31.4496 22.1321 31.896C22.1009 32.3425 22.1037 33.0492 22.1383 33.4667C22.1728 33.8842 22.2758 34.4982 22.3672 34.8312L22.5333 35.4367L22.1376 35.9512C21.92 36.2342 21.6012 36.7225 21.4292 37.0364C21.2572 37.3503 21.0123 37.8808 20.8851 38.2154C20.7578 38.5499 20.572 39.1581 20.4721 39.5669C20.306 40.2462 20.2909 40.4773 20.296 42.253C20.301 44.0204 20.3202 44.2924 20.5095 45.2645C20.6239 45.8523 20.8102 46.6125 20.9235 46.954C21.0369 47.2954 21.2526 47.8408 21.4029 48.1661C21.5532 48.4913 21.8534 49.0355 22.07 49.3755C22.2866 49.7154 22.7697 50.3046 23.1437 50.6848C23.5177 51.065 24.1039 51.5585 24.4463 51.7817C24.7888 52.0048 25.3929 52.3385 25.7887 52.5231C26.1846 52.7078 26.8066 52.9524 27.171 53.0667C27.5353 53.181 28.1736 53.3481 28.5893 53.4381C29.0049 53.5282 29.5733 53.6287 29.8524 53.6615C30.1314 53.6943 30.3853 53.7368 30.4164 53.756C30.4476 53.7752 30.3107 54.0065 30.1124 54.2701C29.914 54.5336 29.6522 54.977 29.5305 55.2553C29.4089 55.5335 29.2518 56.0418 29.1813 56.3847C29.0567 56.991 29.0443 57.0121 28.7307 57.1574C28.5534 57.2396 28.18 57.368 27.901 57.4428C27.6219 57.5175 27.1648 57.6034 26.8852 57.6336C26.6056 57.6637 26.1138 57.6457 25.7924 57.5935C25.4002 57.5299 24.995 57.3859 24.5602 57.1555C24.1316 56.9283 23.76 56.6499 23.4616 56.3325C23.2137 56.0688 22.7969 55.5078 22.5356 55.0859C22.2742 54.6641 21.8214 54.0818 21.5292 53.792C21.2178 53.4832 20.7708 53.1474 20.449 52.9805C20.1471 52.824 19.6718 52.6546 19.3928 52.6043C19.0048 52.5342 18.7953 52.5379 18.5028 52.6201C18.2925 52.6792 18.0827 52.7927 18.0367 52.8723C17.9722 52.984 17.9897 53.0709 18.1131 53.2524C18.2012 53.3819 18.4423 53.6208 18.6491 53.7834C18.8558 53.946 19.2043 54.2334 19.4235 54.422C19.6427 54.6106 20.0074 55.0097 20.2339 55.309C20.4978 55.6576 20.8726 56.3536 21.2772 57.2468C21.8722 58.5599 21.9455 58.6798 22.5436 59.3171C22.9983 59.8016 23.3447 60.0836 23.764 60.3102C24.0859 60.4844 24.6304 60.7088 24.9738 60.809C25.4797 60.9564 25.8206 60.9916 26.7691 60.9936C27.4131 60.995 28.1632 60.9484 28.436 60.8901C28.7087 60.8318 28.9538 60.8077 28.9806 60.8367C29.0073 60.8655 29.0429 61.7853 29.0598 62.8805C29.0798 64.1895 29.0606 64.9789 29.0037 65.1846C28.9561 65.3567 28.8488 65.5643 28.7654 65.646C28.682 65.7277 28.4797 65.8458 28.3159 65.9084C28.0623 66.0055 28.7895 66.0165 33.2088 65.9826C36.0637 65.9606 39.0143 65.919 39.7656 65.89C40.6954 65.8542 41.056 65.8153 40.895 65.768C40.7648 65.7299 40.5808 65.6206 40.4861 65.525C40.3914 65.4296 40.2964 65.267 40.275 65.1636C40.2536 65.0604 40.2249 63.1514 40.2111 60.9213C40.1874 57.091 40.1768 56.8308 40.0199 56.2201C39.9286 55.8645 39.7601 55.3703 39.6456 55.122C39.5311 54.8736 39.284 54.4566 39.0966 54.1953L38.7559 53.7202L39.2412 53.6629C39.5082 53.6315 40.1656 53.5108 40.7023 53.3949C41.2389 53.2791 42.0866 53.0367 42.586 52.8564C43.0854 52.6763 43.7177 52.4078 43.991 52.2599C44.2644 52.112 44.769 51.7898 45.1125 51.5439C45.4559 51.298 45.9931 50.821 46.3062 50.4838C46.6193 50.1467 47.0779 49.5433 47.3253 49.143C47.5727 48.7427 47.9075 48.074 48.0693 47.657C48.2311 47.2402 48.4485 46.5569 48.5524 46.1387C48.6564 45.7206 48.7985 44.9794 48.8683 44.4915C48.9484 43.9317 48.9969 43.0439 48.9997 42.0841C49.0034 40.827 48.9757 40.4304 48.8401 39.7947C48.7498 39.3718 48.5733 38.7398 48.4479 38.3901C48.3225 38.0405 48.09 37.5033 47.9313 37.1962C47.7726 36.8892 47.434 36.3535 47.1787 36.0059C46.7531 35.4263 46.7214 35.3546 46.7965 35.1409C46.8415 35.0128 46.9317 34.6409 46.9971 34.3146C47.0666 33.9669 47.1167 33.2845 47.1181 32.6655C47.1197 31.9088 47.0749 31.3822 46.9598 30.8071C46.8716 30.3657 46.7328 29.7956 46.6513 29.54L46.5031 29.0754L45.966 29.05C45.6685 29.036 45.1796 29.0846 44.8702 29.1591C44.5628 29.2331 44.0361 29.4084 43.6996 29.5486C43.3631 29.6889 42.7354 29.9962 42.3048 30.2316C41.8742 30.467 41.2481 30.8495 40.9136 31.0817L40.3053 31.5038L39.3524 31.2802C38.8284 31.1573 38.0483 30.9983 37.619 30.9269C37.1897 30.8554 36.15 30.7749 35.3085 30.7479C34.3513 30.7172 33.4015 30.7372 32.7716 30.8011C32.2179 30.8573 31.4662 30.9584 31.1013 31.0257C30.7364 31.093 30.1041 31.2262 29.6963 31.3215L28.9547 31.4949L27.9053 30.814C27.328 30.4397 26.485 29.9642 26.0319 29.7576C25.5788 29.551 24.927 29.3067 24.5835 29.2148C24.2401 29.1229 23.7835 29.0326 23.5688 29.0142C23.3542 28.9958 23.0801 28.9952 22.9598 29.013Z" fill="black"/>
</svg>
