<svg width="66" height="66" viewBox="0 0 66 66" fill="none" xmlns="http://www.w3.org/2000/svg">
<rect width="66" height="66" fill="#F4DD1E"/>
<path fill-rule="evenodd" clip-rule="evenodd" d="M14 30.8305V35.661H14.875H15.75V30.8305V26H14.875H14V30.8305ZM16.1705 26.1658C16.0768 26.2611 16 28.2556 16 30.5979C16 32.9402 16.068 35.0371 16.1512 35.2573C16.2342 35.4777 16.403 35.5949 16.5262 35.5174C16.6492 35.4401 16.7482 33.41 16.7462 31.0062C16.744 28.6024 16.652 26.4909 16.5415 26.314C16.4313 26.137 16.2643 26.0704 16.1705 26.1658ZM17.1705 26.1658C17.0768 26.2611 17 28.2556 17 30.5979C17 32.9402 17.068 35.0371 17.1512 35.2573C17.2342 35.4777 17.403 35.5949 17.5262 35.5174C17.6492 35.4401 17.7482 33.41 17.7462 31.0062C17.744 28.6024 17.652 26.4909 17.5415 26.314C17.4313 26.137 17.2643 26.0704 17.1705 26.1658ZM18 30.8305V35.661H18.75H19.5V30.8305V26H18.75H18V30.8305ZM20.9205 26.1658C20.8267 26.2611 20.75 28.2556 20.75 30.5979C20.75 32.9402 20.818 35.0371 20.9012 35.2573C20.9842 35.4777 21.153 35.5949 21.2762 35.5174C21.3992 35.4401 21.4983 33.41 21.4963 31.0062C21.494 28.6024 21.402 26.4909 21.2915 26.314C21.1813 26.137 21.0142 26.0704 20.9205 26.1658ZM21.75 30.8305V35.661H22.625H23.5V30.8305V26H22.625H21.75V30.8305ZM23.9205 26.1658C23.8267 26.2611 23.75 28.2556 23.75 30.5979C23.75 32.9402 23.818 35.0371 23.9012 35.2573C23.9842 35.4777 24.153 35.5949 24.2762 35.5174C24.3992 35.4401 24.4983 33.41 24.4963 31.0062C24.494 28.6024 24.402 26.4909 24.2915 26.314C24.1813 26.137 24.0142 26.0704 23.9205 26.1658ZM26.6705 26.1658C26.5767 26.2611 26.5 28.2556 26.5 30.5979C26.5 32.9402 26.568 35.0371 26.6512 35.2573C26.7342 35.4777 26.903 35.5949 27.0262 35.5174C27.1492 35.4401 27.2483 33.41 27.2463 31.0062C27.244 28.6024 27.152 26.4909 27.0415 26.314C26.9313 26.137 26.7642 26.0704 26.6705 26.1658ZM27.5 30.8305V35.661H28.375H29.25V30.8305V26H28.375H27.5V30.8305ZM29.6705 26.1658C29.5767 26.2611 29.5 28.2556 29.5 30.5979C29.5 32.9402 29.568 35.0371 29.6512 35.2573C29.7342 35.4777 29.903 35.5949 30.0263 35.5174C30.1493 35.4401 30.2483 33.41 30.2463 31.0062C30.244 28.6024 30.152 26.4909 30.0415 26.314C29.9313 26.137 29.7642 26.0704 29.6705 26.1658ZM30.5 30.8305V35.661H31.25H32V30.8305V26H31.25H30.5V30.8305ZM32.4205 26.1658C32.3267 26.2611 32.25 28.2556 32.25 30.5979C32.25 32.9402 32.318 35.0371 32.4013 35.2573C32.4843 35.4777 32.653 35.5949 32.7763 35.5174C32.8993 35.4401 32.9983 33.41 32.9963 31.0062C32.994 28.6024 32.902 26.4909 32.7915 26.314C32.6813 26.137 32.5142 26.0704 32.4205 26.1658ZM33.25 30.8305V35.661H34.125H35V30.8305V26H34.125H33.25V30.8305ZM36.4205 26.1658C36.3267 26.2611 36.25 28.2556 36.25 30.5979C36.25 32.9402 36.318 35.0371 36.4013 35.2573C36.4843 35.4777 36.653 35.5949 36.7763 35.5174C36.8993 35.4401 36.9983 33.41 36.9963 31.0062C36.994 28.6024 36.902 26.4909 36.7915 26.314C36.6813 26.137 36.5142 26.0704 36.4205 26.1658ZM37.25 30.8305V35.661H38H38.75V30.8305V26H38H37.25V30.8305ZM39.1705 26.1658C39.0767 26.2611 39 28.2556 39 30.5979C39 32.9402 39.068 35.0371 39.1513 35.2573C39.2343 35.4777 39.403 35.5949 39.5263 35.5174C39.6493 35.4401 39.7483 33.41 39.7463 31.0062C39.744 28.6024 39.652 26.4909 39.5415 26.314C39.4313 26.137 39.2642 26.0704 39.1705 26.1658ZM40.1705 26.1658C40.0767 26.2611 40 28.2556 40 30.5979C40 32.9402 40.068 35.0371 40.1513 35.2573C40.2343 35.4777 40.403 35.5949 40.5263 35.5174C40.6493 35.4401 40.7483 33.41 40.7463 31.0062C40.744 28.6024 40.652 26.4909 40.5415 26.314C40.4313 26.137 40.2642 26.0704 40.1705 26.1658ZM42 30.8305V35.661H42.75H43.5V30.8305V26H42.75H42V30.8305ZM43.9205 26.1658C43.8267 26.2611 43.75 28.2556 43.75 30.5979C43.75 32.9402 43.818 35.0371 43.9013 35.2573C43.9843 35.4777 44.153 35.5949 44.2763 35.5174C44.3993 35.4401 44.4983 33.41 44.4963 31.0062C44.494 28.6024 44.402 26.4909 44.2915 26.314C44.1813 26.137 44.0142 26.0704 43.9205 26.1658ZM44.75 30.8305V35.661H45.625H46.5V30.8305V26H45.625H44.75V30.8305ZM46.9205 26.1658C46.8268 26.2611 46.75 28.2556 46.75 30.5979C46.75 32.9402 46.818 35.0371 46.9012 35.2573C46.9842 35.4777 47.153 35.5949 47.2762 35.5174C47.3992 35.4401 47.4983 33.41 47.4963 31.0062C47.494 28.6024 47.402 26.4909 47.2915 26.314C47.1813 26.137 47.0143 26.0704 46.9205 26.1658ZM47.9205 26.1658C47.8268 26.2611 47.75 28.2556 47.75 30.5979C47.75 32.9402 47.818 35.0371 47.9012 35.2573C47.9842 35.4777 48.153 35.5949 48.2762 35.5174C48.3992 35.4401 48.4983 33.41 48.4963 31.0062C48.494 28.6024 48.402 26.4909 48.2915 26.314C48.1813 26.137 48.0143 26.0704 47.9205 26.1658ZM50.5 30.8305V35.661H51.375H52.25V30.8305V26H51.375H50.5V30.8305ZM24.75 30.8305C24.75 33.5425 24.8433 35.1525 25 35.1525C25.1567 35.1525 25.25 33.5425 25.25 30.8305C25.25 28.1186 25.1567 26.5085 25 26.5085C24.8433 26.5085 24.75 28.1186 24.75 30.8305ZM49.75 30.8305C49.75 33.5425 49.8433 35.1525 50 35.1525C50.1567 35.1525 50.25 33.5425 50.25 30.8305C50.25 28.1186 50.1567 26.5085 50 26.5085C49.8433 26.5085 49.75 28.1186 49.75 30.8305ZM16.8015 38.7551C16.849 39.9309 16.986 40.6153 17.1875 40.683C17.3923 40.7519 17.5 40.518 17.5 40.0042C17.5 39.5732 17.6095 39.2203 17.7435 39.2203C17.8775 39.2203 18.1618 39.5636 18.375 39.9831C18.5882 40.4025 18.8725 40.7458 19.0065 40.7458C19.1405 40.7458 19.25 40.6939 19.25 40.6306C19.25 40.5673 19.118 40.221 18.9567 39.861C18.7325 39.3604 18.7325 39.1364 18.9567 38.9084C19.118 38.7444 19.25 38.3511 19.25 38.0343C19.25 37.7178 19.0325 37.3403 18.7665 37.1953C18.5005 37.0507 17.933 36.9322 17.5055 36.9322H16.728L16.8015 38.7551ZM32.6875 37.2017C32.4468 37.3471 32.25 37.626 32.25 37.8218C32.25 38.0173 32.6438 38.4831 33.125 38.8563C33.6062 39.2295 34 39.6358 34 39.7591C34 39.8821 33.6692 39.9831 33.2647 39.9831C32.8602 39.9831 32.462 40.0942 32.3795 40.2299C32.297 40.3657 32.5237 40.5518 32.8832 40.6436C33.2427 40.7353 33.8097 40.6837 34.1435 40.5292C34.477 40.3746 34.75 40.0822 34.75 39.8796C34.75 39.6767 34.5937 39.3597 34.403 39.1748C34.212 38.9903 33.8182 38.6399 33.528 38.3966C33.2375 38.1533 33 37.8253 33 37.6677C33 37.4981 33.259 37.4318 33.635 37.5047C34.0355 37.5828 34.236 37.5233 34.1777 37.3438C34.1272 37.1875 33.8697 37.0319 33.6055 36.9983C33.3412 36.9647 32.9282 37.0563 32.6875 37.2017ZM39.8697 37.236C39.789 37.4498 39.7572 38.2893 39.799 39.1016C39.8425 39.9464 40.001 40.6207 40.1695 40.6771C40.338 40.7336 40.4985 40.4704 40.5445 40.0616C40.6028 39.5442 40.7627 39.3475 41.125 39.3475C41.4852 39.3475 41.6473 39.544 41.7045 40.0509C41.7483 40.4379 41.8888 40.6886 42.017 40.608C42.1453 40.5274 42.25 39.7247 42.25 38.824C42.25 37.9232 42.145 37.1864 42.0165 37.1864C41.8883 37.1864 41.7475 37.5009 41.704 37.8856C41.6473 38.3885 41.4845 38.5847 41.125 38.5847C40.7808 38.5847 40.599 38.3869 40.5413 37.9492C40.4953 37.5996 40.3585 37.2086 40.237 37.0804C40.105 36.9408 39.9575 37.0034 39.8697 37.236ZM48.2878 37.9868C48.0265 38.6066 47.7337 39.5094 47.6372 39.9932L47.4615 40.8729L48.1058 40.1102L48.75 39.3475L49.364 40.1003C49.7015 40.5142 50.0435 40.7862 50.1237 40.7046C50.204 40.623 49.9808 39.7756 49.6278 38.8217C49.2745 37.8675 48.9355 37.0359 48.874 36.9736C48.8128 36.9114 48.5488 37.3672 48.2878 37.9868ZM25.3275 37.6314C25.2415 37.8759 24.9595 38.6346 24.7013 39.3169C24.443 39.9993 24.297 40.624 24.377 40.7053C24.4567 40.7864 24.7985 40.5142 25.136 40.1003L25.75 39.3475L26.3737 40.1102C26.838 40.6779 26.9977 40.7615 26.9987 40.4376C26.9995 40.1981 26.767 39.3686 26.482 38.5944C26.1973 37.82 25.8562 37.1864 25.7242 37.1864C25.5922 37.1864 25.4138 37.3868 25.3275 37.6314ZM18.6398 37.7193C18.733 37.8726 18.628 38.1823 18.4062 38.4075C18.1048 38.7142 17.932 38.7444 17.7185 38.5273C17.5617 38.3679 17.5013 38.0582 17.584 37.8391C17.6668 37.6199 17.9 37.4407 18.1025 37.4407C18.3047 37.4407 18.5468 37.566 18.6398 37.7193ZM26 38.839C26 39.0487 25.8875 39.2203 25.75 39.2203C25.6125 39.2203 25.5 39.0487 25.5 38.839C25.5 38.6292 25.6125 38.4576 25.75 38.4576C25.8875 38.4576 26 38.6292 26 38.839ZM49 38.839C49 39.0487 48.8875 39.2203 48.75 39.2203C48.6125 39.2203 48.5 39.0487 48.5 38.839C48.5 38.6292 48.6125 38.4576 48.75 38.4576C48.8875 38.4576 49 38.6292 49 38.839Z" fill="black"/>
</svg>
